<?xml version="1.0" encoding="UTF-8" standalone="no"?>
<!-- Created with Inkscape (http://www.inkscape.org/) -->

<svg
   width="63.999996"
   height="63.999996"
   viewBox="0 0 16.933332 16.933332"
   version="1.1"
   id="svg1"
   xmlns:xlink="http://www.w3.org/1999/xlink"
   xmlns="http://www.w3.org/2000/svg"
   xmlns:svg="http://www.w3.org/2000/svg">
  <defs
     id="defs1">
    <linearGradient
       id="linearGradient1">
      <stop
         style="stop-color:#c9c9c9;stop-opacity:1;"
         offset="0"
         id="stop1" />
      <stop
         style="stop-color:#a9a9a9;stop-opacity:1;"
         offset="1"
         id="stop2" />
    </linearGradient>
    <linearGradient
       xlink:href="#linearGradient1"
       id="linearGradient2"
       x1="93.960327"
       y1="117.74216"
       x2="94.278084"
       y2="148.5683"
       gradientUnits="userSpaceOnUse"
       gradientTransform="translate(-85.759093,-125.37879)" />
    <filter
       style="color-interpolation-filters:sRGB"
       id="filter42"
       x="0"
       y="0"
       width="1.0138119"
       height="1.0127626">
      <feFlood
         result="flood"
         in="SourceGraphic"
         flood-opacity="1.000000"
         flood-color="rgb(51,51,51)"
         id="feFlood41" />
      <feGaussianBlur
         result="blur"
         in="SourceGraphic"
         stdDeviation="0.000000"
         id="feGaussianBlur41" />
      <feOffset
         result="offset"
         in="blur"
         dx="0.400000"
         dy="0.400000"
         id="feOffset41" />
      <feComposite
         result="comp1"
         operator="in"
         in="flood"
         in2="offset"
         id="feComposite41" />
      <feComposite
         result="comp2"
         operator="over"
         in="SourceGraphic"
         in2="comp1"
         id="feComposite42" />
    </filter>
  </defs>
  <g
     id="layer1"
     style="stroke:none">
    <path
       id="path1"
       fill="none"
       stroke="#000000"
       stroke-width="2.07774"
       d="m -5.9739197,-8.1035135 3.9855799,0.61019 c 0,0 0.808109,1.07749 0.742141,1.07749 -0.07147,0 0.60470896,-1.01152 0.60470896,-1.01152 l 3.98557894,0.40682 1.082978,0.67067 c 0,0 0.7476409,-0.29136 1.4842849,0.34083 l 1.011514,-0.87957 3.716208,0.26936 -0.340836,0.87957 1.555751,-0.74213 7.503886,-0.31336 0.66518,1.12148 c 0,0 0.97303,-0.47279 1.28637,-0.33535 0.31336,0.13194 0.74215,1.3468499 0.74215,1.3468499 l -0.4068,1.89108 -1.48429,0.74765 1.07749,0.47277 0.32433,9.0541398 -0.94554,0.81361 0.13194,1.6876798 -0.53874,1.28088 1.55025,1.6932 0.79162,10.09313 -2.13847,-0.97304 -2.23193,0.74214 -2.79265,-0.28037 -0.8356,-1.67118 -0.373818,2.32538 H 5.10874 l -0.7971159,-0.86858 -1.110467,0.35733 -0.879575,-0.74765 -0.698164,1.20943 -6.8387029,-0.187 0.698162,-2.74317 -1.0554919,-0.044 -0.538739,-7.36097 c 0,0 0.725651,-0.86858 1.4842849,-0.67616 0,-0.0659 -0.56073,-0.91807 -0.489264,-0.91807 0.06597,0 -1.0609889,-0.0935 -1.0609889,-0.0935 0,0 -0.197904,-3.0290298 -0.137442,-3.9855798 0.852089,-0.14835 1.0829779,-0.67616 1.0829779,-0.67616 0,0 -0.5717259,0.21989 -0.9455459,-0.33535 -0.544237,-7.4873798 0.04222,-14.2721597 0.04222,-14.2721597 z"
       style="fill:url(#linearGradient2);fill-opacity:1;stroke:none;stroke-width:0;stroke-dasharray:none;filter:url(#filter42)"
       transform="matrix(0.38080479,0,0,0.38080479,5.4978414,5.6100659)">
      <title
         id="title1">Map2</title>
    </path>
  </g>
  <g
     id="layer2">
    <path
       id="path1-4"
       fill="none"
       stroke="#000000"
       stroke-width="2.22748"
       d="m 4.6323453,4.5295119 c 0,0 0.2693885,1.3574739 1.2669699,1.4248154 0.9975813,0.06944 1.3132715,-0.220981 2.1740541,-0.7702805 0.8607826,-0.5514091 2.7528207,-0.481958 3.3736777,0.2062477 0.618754,0.6882094 0.652429,1.3406346 0.170475,1.8583654 C 11.135567,7.7642886 10.550488,8.0736658 9.3129803,8.1767878 8.0733693,8.2799173 6.7916668,7.5538293 5.8719551,8.0736658 4.9501394,8.5935025 4.6049852,9.7384034 4.6996921,10.679163 c 0.094707,0.940759 0.9575938,1.879412 2.0688237,1.622651 1.4732221,-0.322013 0.8081671,-1.443757 3.3863062,-1.104925"
       style="stroke:#141414;stroke-width:0.259709;stroke-dasharray:0.779127, 0.779127;stroke-dashoffset:0;stroke-opacity:1">
      <title
         id="title1-5">Line</title>
    </path>
    <path
       id="path1-1"
       fill="none"
       stroke="#000000"
       stroke-width="4.03032"
       d="m 9.5041869,10.510242 c 0,0 0.7198141,-0.6766259 0.7198141,-0.6766259 0.05962,0.6766259 0.841156,1.1825509 0.841156,1.1825509 0,0 0.800021,-0.656058 0.789739,-1.1907763 0,0 0.71364,0.6704523 0.71364,0.6704523 -0.707471,0.03701 -1.264809,0.758887 -1.264809,0.758887 0,0 0.730098,0.752725 1.369698,0.684858 0,0 -0.730094,0.818529 -0.730094,0.818529 -0.0062,-0.625209 -0.878174,-1.250422 -0.878174,-1.250422 0,0 -0.773282,0.491535 -0.847321,1.273041 0,0 -0.6766257,-0.758883 -0.6766257,-0.758883 0.7650587,-0.06786 1.2936097,-0.767123 1.2936097,-0.767123 0,0 -0.571747,-0.721865 -1.3306331,-0.744488 z"
       style="fill:#141414;fill-opacity:1;stroke:#141414;stroke-width:0.0636447;stroke-dasharray:none;stroke-opacity:1">
      <title
         id="title1-1">Unnamed</title>
    </path>
  </g>
</svg>
