<?xml version="1.0" encoding="UTF-8" standalone="no"?>
<!-- Created with Inkscape (http://www.inkscape.org/) -->

<svg
   width="16"
   height="15.999999"
   viewBox="0 0 4.2333332 4.233333"
   version="1.1"
   id="svg1"
   sodipodi:docname="SimpleQuestClassIconWhite16px.svg"
   inkscape:export-filename="SimpleQuestClassIconWhite16px.svg"
   inkscape:export-xdpi="96"
   inkscape:export-ydpi="96"
   inkscape:version="1.4.2 (f4327f4, 2025-05-13)"
   xmlns:inkscape="http://www.inkscape.org/namespaces/inkscape"
   xmlns:sodipodi="http://sodipodi.sourceforge.net/DTD/sodipodi-0.dtd"
   xmlns="http://www.w3.org/2000/svg"
   xmlns:svg="http://www.w3.org/2000/svg">
  <sodipodi:namedview
     id="namedview1"
     pagecolor="#505050"
     bordercolor="#eeeeee"
     borderopacity="1"
     inkscape:showpageshadow="0"
     inkscape:pageopacity="0"
     inkscape:pagecheckerboard="0"
     inkscape:deskcolor="#505050"
     inkscape:zoom="53.437503"
     inkscape:cx="7.9999995"
     inkscape:cy="7.9999995"
     inkscape:window-width="1920"
     inkscape:window-height="1057"
     inkscape:window-x="1592"
     inkscape:window-y="-8"
     inkscape:window-maximized="1"
     inkscape:current-layer="svg1" />
  <defs
     id="defs1" />
  <g
     id="layer1">
    <path
       id="path1"
       fill="none"
       stroke="#000000"
       stroke-width="1"
       d="m 1.7853465,3.135592 c 0,0 -1.28408632,0.3262434 -1.25916145,-0.7304013 C 0.51983505,1.1028798 2.403595,1.8612228 2.6029497,0.99920625 2.7632721,0.13849487 1.0301281,0.36427115 0.56559333,0.42080114"
       style="stroke:#ffffff;stroke-width:0.3175;stroke-linecap:butt;stroke-linejoin:round;stroke-dasharray:0.9525, 0.4445;stroke-dashoffset:0;stroke-opacity:1"
       sodipodi:nodetypes="cccc">
      <title
         id="title1">Unnamed #1</title>
    </path>
    <path
       id="path1-2"
       fill="none"
       stroke="#000000"
       stroke-width="1"
       d="m 1.7511142,3.5481234 c 0,0 0.70114,0.62706 0.70114,0.62706 0.045,-0.49742 0.5424,-0.7964 0.5424,-0.7964 0,0 0.46037,0.4498 0.45243,0.84402 0,0 0.7329,-0.67997 0.7329,-0.67997 -0.51858,-0.0265 -0.84402,-0.46832 -0.84402,-0.46832 0,0 0.41804,-0.4524298 0.88635,-0.4048098 0,0 -0.64823,-0.75406 -0.64823,-0.75406 -0.005,0.46037 -0.59531,0.76994 -0.59531,0.76994 0,0 -0.49212,-0.21696 -0.54769,-0.79111 0,0 -0.65352,0.69056 -0.65352,0.69056 0.56357,0.0503 0.85725,0.4577298 0.85725,0.4577298 0,0 -0.32543,0.48948 -0.8837,0.50536 z"
       style="fill:#ffffff;fill-opacity:1;stroke-width:0;stroke-dasharray:none">
      <title
         id="title1-3">Unnamed</title>
    </path>
  </g>
</svg>
